<?xml version="1.0" standalone="no"?>
<!DOCTYPE svg PUBLIC "-//W3C//DTD SVG 20010904//EN"
 "http://www.w3.org/TR/2001/REC-SVG-20010904/DTD/svg10.dtd">
<svg version="1.0" xmlns="http://www.w3.org/2000/svg"
 width="1024.000000pt" height="1024.000000pt" viewBox="0 0 1024.000000 1024.000000"
 preserveAspectRatio="xMidYMid meet">

<g transform="translate(0.000000,1024.000000) scale(0.100000,-0.100000)"
fill="#000000" stroke="none">
<path d="M2045 6814 c-227 -47 -404 -227 -450 -456 -22 -114 -23 -2376 0
-2495 44 -231 207 -406 431 -463 75 -19 115 -20 1311 -20 1370 0 1307 -3 1449
66 167 81 283 238 320 431 21 114 21 2355 -1 2469 -40 212 -185 375 -401 451
l-79 28 -1255 2 c-1065 1 -1266 -1 -1325 -13z m2293 -699 c20 -9 48 -26 61
-38 34 -32 71 -115 71 -162 0 -83 -17 -115 -118 -218 -53 -53 -100 -96 -105
-94 -5 1 -76 70 -158 152 l-150 150 100 98 c55 54 115 104 133 112 44 19 120
19 166 0z m-316 -450 l148 -151 -673 -671 -672 -671 -205 -102 c-222 -111
-238 -114 -269 -59 -18 32 -13 48 95 289 l78 175 670 673 c369 369 673 671
676 669 3 -1 71 -70 152 -152z"/>
<path d="M6581 6611 c-6 -11 -112 -304 -237 -653 -124 -348 -318 -892 -431
-1208 -299 -838 -314 -883 -305 -892 5 -5 125 -7 268 -6 l259 3 91 265 c50
146 99 286 108 313 l17 47 495 0 c387 0 495 -3 498 -12 35 -119 203 -593 213
-604 12 -11 62 -14 263 -14 137 0 251 4 254 9 7 11 -42 156 -484 1416 -379
1080 -453 1291 -466 1323 l-13 32 -260 0 c-246 0 -261 -1 -270 -19z m435
-1147 c91 -269 168 -497 171 -506 5 -17 -16 -18 -345 -18 l-350 0 169 501
c167 495 177 524 185 517 2 -2 78 -224 170 -494z"/>
<path d="M8277 6624 c-4 -4 -7 -627 -7 -1385 l0 -1379 23 -5 c12 -3 126 -4
252 -3 l230 3 0 1385 0 1385 -246 3 c-135 1 -248 -1 -252 -4z"/>
</g>
</svg>
